<svg xmlns="http://www.w3.org/2000/svg" xmlns:xlink="http://www.w3.org/1999/xlink" width="96px" height="23px" viewBox="0 0 96 23" version="1.1">
    <!-- Generator: Sketch 52.2 (67145) - http://www.bohemiancoding.com/sketch -->
    <title>uprise.ai</title>
    <desc>Created with Sketch.</desc>
    <g id="Page-1" stroke="none" stroke-width="1" fill="none" fill-rule="evenodd">
        <g id="Artboard-Copy-33" transform="translate(-175.000000, -5438.000000)" fill="#4A4A4A">
            <g id="Group-31" transform="translate(100.000000, 5423.000000)">
                <path d="M84.828,20.376 L86.7,20.376 L86.7,33 L84.828,33 L84.828,30.144 C83.988,32.112 82.308,33.048 80.028,33.072 C77.076,33.072 75.3,31.2 75.3,28.152 L75.3,20.376 L77.172,20.376 L77.172,27.672 C77.172,29.928 78.492,31.272 80.676,31.272 C83.292,31.224 84.828,29.304 84.828,26.568 L84.828,20.376 Z M98.124,20.304 C101.7,20.304 104.196,22.944 104.196,26.712 C104.196,30.456 101.748,33.072 98.172,33.072 C95.916,33.072 94.188,32.04 93.252,30.288 L93.252,37.656 L91.38,37.656 L91.38,20.376 L93.252,20.376 L93.252,23.088 C94.188,21.336 95.916,20.304 98.124,20.304 Z M97.788,31.416 C100.428,31.416 102.3,29.424 102.3,26.664 C102.3,23.928 100.428,21.912 97.788,21.912 C95.124,21.912 93.252,23.904 93.252,26.664 C93.252,29.448 95.124,31.416 97.788,31.416 Z M109.356,23.184 C110.196,21.336 111.756,20.328 113.892,20.304 L113.892,22.128 C111.228,22.08 109.572,23.736 109.356,26.28 L109.356,33 L107.484,33 L107.484,20.376 L109.356,20.376 L109.356,23.184 Z M117.324,15.48 C118.02,15.48 118.548,16.008 118.548,16.752 C118.548,17.472 118.02,18.024 117.324,18.024 C116.628,18.024 116.1,17.472 116.1,16.752 C116.1,16.008 116.628,15.48 117.324,15.48 Z M116.412,20.376 L118.26,20.376 L118.26,33 L116.412,33 L116.412,20.376 Z M129.492,22.872 C128.508,22.248 127.236,21.864 126.06,21.864 C124.644,21.864 123.564,22.368 123.564,23.568 C123.564,26.424 130.62,24.96 130.62,29.496 C130.62,31.968 128.412,33.072 125.988,33.072 C124.188,33.072 122.34,32.448 121.14,31.296 L121.86,29.928 C122.94,30.936 124.572,31.536 126.06,31.536 C127.548,31.536 128.748,30.96 128.772,29.688 C128.844,26.616 121.764,28.176 121.788,23.712 C121.788,21.312 123.876,20.28 126.18,20.28 C127.692,20.28 129.156,20.736 130.212,21.432 L129.492,22.872 Z M138.948,31.512 C140.508,31.512 141.876,30.84 142.98,29.496 L144.108,30.504 C142.716,32.232 140.94,33.072 138.828,33.072 C135.06,33.072 132.42,30.456 132.42,26.664 C132.42,22.992 134.916,20.328 138.66,20.304 C141.78,20.28 144.036,22.152 144.444,25.224 L134.628,28.56 C135.276,30.384 136.884,31.512 138.948,31.512 Z M138.756,21.888 C136.092,21.888 134.292,23.664 134.292,26.592 C134.292,26.784 134.292,26.952 134.316,27.144 L142.572,24.288 C141.924,22.68 140.556,21.888 138.756,21.888 Z M147.636,30.744 C148.284,30.744 148.788,31.272 148.788,31.968 C148.788,32.664 148.284,33.192 147.636,33.192 C146.964,33.192 146.46,32.664 146.46,31.968 C146.46,31.272 146.964,30.744 147.636,30.744 Z M162.012,20.376 L163.884,20.376 L163.884,33 L162.012,33 L162.012,30.312 C161.076,32.064 159.348,33.096 157.116,33.096 C153.516,33.096 151.02,30.432 151.02,26.664 C151.02,22.92 153.492,20.28 157.044,20.28 C159.324,20.256 161.052,21.288 162.012,23.064 L162.012,20.376 Z M157.476,31.488 C159.972,31.488 161.796,29.736 162.012,27.192 L162.012,26.232 C161.796,23.688 159.972,21.912 157.476,21.912 C154.788,21.912 152.892,23.928 152.892,26.712 C152.892,29.496 154.788,31.488 157.476,31.488 Z M169.332,15.48 C170.028,15.48 170.556,16.008 170.556,16.752 C170.556,17.472 170.028,18.024 169.332,18.024 C168.636,18.024 168.108,17.472 168.108,16.752 C168.108,16.008 168.636,15.48 169.332,15.48 Z M168.42,20.376 L170.268,20.376 L170.268,33 L168.42,33 L168.42,20.376 Z" id="uprise.ai"/>
            </g>
        </g>
    </g>
</svg>