<svg xmlns="http://www.w3.org/2000/svg" xmlns:xlink="http://www.w3.org/1999/xlink" width="59px" height="50px" viewBox="0 0 59 50" version="1.1">
    <!-- Generator: Sketch 52.2 (67145) - http://www.bohemiancoding.com/sketch -->
    <title>Combined Shape</title>
    <desc>Created with Sketch.</desc>
    <g id="Page-1" stroke="none" stroke-width="1" fill="none" fill-rule="evenodd">
        <g id="Artboard-Copy-33" transform="translate(-100.000000, -5423.000000)" fill="#0251CC">
            <path d="M159,5429.50004 C159,5433.08984 156.313717,5436 153,5436 C149.686283,5436 147,5433.08984 147,5429.50004 C147,5425.91016 149.686283,5423 153,5423 C156.313717,5423 159,5425.91016 159,5429.50004 Z M138.57983,5452.75928 C139.242565,5451.53301 139.575907,5450.15811 139.575907,5448.63054 C139.575907,5447.34236 139.307258,5446.21932 138.769747,5445.2573 C138.230332,5444.29529 137.521106,5443.56452 136.640235,5443.0567 C135.759294,5442.54881 134.81373,5442.29695 133.805519,5442.29695 C132.261843,5442.29695 130.942512,5442.81306 129.851477,5443.8411 L130.128239,5442.52819 L125.594357,5442.52819 L121.890834,5461.47093 L126.67735,5461.47093 L127.986593,5454.80714 C128.792753,5456.07463 130.186865,5456.71047 132.16893,5456.71047 C133.51253,5456.71047 134.751083,5456.3595 135.884588,5455.65763 C137.018024,5454.95166 137.917096,5453.98554 138.57983,5452.75928 Z M131.947953,5445.78947 C132.738974,5445.78947 133.363158,5446.06034 133.818214,5446.60214 C134.271396,5447.14851 134.5,5447.88176 134.5,5448.81575 C134.5,5450.11413 134.201927,5451.17425 133.607585,5451.98692 C133.013313,5452.80415 132.244152,5453.21053 131.301978,5453.21053 C130.509013,5453.21053 129.886911,5452.94431 129.431716,5452.41188 C128.976591,5451.87946 128.75,5451.14621 128.75,5450.21213 C128.75,5448.89517 129.048142,5447.82575 129.642345,5447.00835 C130.236687,5446.19577 131.005848,5445.78947 131.947953,5445.78947 Z M115.265748,5456.47923 L119.7997,5456.47923 L122.521257,5442.52819 L117.734811,5442.52819 L116.373009,5449.42734 C116.173004,5450.45538 115.803188,5451.23163 115.265748,5451.75596 C114.728378,5452.28029 114.047442,5452.54043 113.225127,5452.54043 C111.998709,5452.54043 111.386487,5451.9335 111.386487,5450.71552 C111.386487,5450.40593 111.418798,5450.0879 111.487513,5449.7618 L112.897781,5442.52819 L108.111335,5442.52819 L106.600041,5450.22421 C106.48286,5450.80635 106.424304,5451.38438 106.424304,5451.95001 C106.424304,5453.47765 106.86474,5454.65021 107.745681,5455.47599 C108.626552,5456.29758 109.814592,5456.71047 111.30973,5456.71047 C112.083579,5456.71047 112.835204,5456.57423 113.564537,5456.29758 C114.295985,5456.02511 114.954628,5455.60401 115.542581,5455.0383 L115.265748,5456.47923 Z M123.000141,5426 C135.702502,5426 146,5436.52114 146,5449.49986 C146,5462.47864 135.702502,5473 123.000141,5473 C110.297498,5473 100,5462.47864 100,5449.49986 C100,5436.52114 110.297498,5426 123.000141,5426 Z" id="Combined-Shape"/>
        </g>
    </g>
</svg>